<svg width="500" height="460" xmlns="http://www.w3.org/2000/svg">
    <g>
        <line fill="none" stroke="#000000" stroke-width="null" stroke-dasharray="null" stroke-linejoin="null"
              stroke-linecap="null" x1="78" y1="35" x2="77" y2="450" id="svg_1"/>
        <line fill="none" stroke="#000000" stroke-width="null" stroke-dasharray="null" stroke-linejoin="null"
              stroke-linecap="null" x1="77" y1="90" x2="308" y2="91" id="svg_3"/>
        <line fill="none" stroke-width="null" stroke-dasharray="null" stroke-linejoin="null" stroke-linecap="null"
              x1="77.5" y1="134.5" x2="411.5" y2="134.5" id="svg_4" stroke="#000000"/>
        <line fill="none" stroke-width="null" stroke-dasharray="null" stroke-linejoin="null" stroke-linecap="null"
              x1="77.5" y1="181.5" x2="412.49999" y2="181.5" id="svg_5" stroke="#000000"/>
        <line fill="none" stroke-width="null" stroke-dasharray="null" stroke-linejoin="null" stroke-linecap="null"
              x1="76.78491" y1="317.24036" x2="431.25303" y2="318.24036" id="svg_6" stroke="#000000"/>
        <line fill="none" stroke="#000000" stroke-width="null" stroke-dasharray="null" stroke-linejoin="null"
              stroke-linecap="null" x1="79.5" y1="367.5" x2="310.5" y2="368.5" id="svg_7"/>
        <path fill="none" stroke="#000000" stroke-width="null" stroke-dasharray="null" stroke-linejoin="null"
              stroke-linecap="null"
              d="m34.82748,80.99474c0.00044,-0.05568 -0.00028,-0.11144 0.00365,-0.16702c0.09666,0.01828 0.19218,0.0482 0.28722,0.07511c0.0051,-0.0273 0.0027,-0.04995 0.00713,-0.0752c0.06105,0.05312 0.12156,0.107 0.17958,0.16344c-0.05567,0.06402 -0.11952,0.11963 -0.18221,0.17656c-0.00203,-0.02651 -0.00406,-0.05303 -0.00609,-0.07954c-0.09239,0.02565 -0.1901,0.05217 -0.28308,0.07562c-0.00632,-0.05411 -0.00614,-0.11304 -0.0062,-0.16897l0,0z"
              id="svg_9"/>
        <path fill="none" stroke="#000000" stroke-width="null" stroke-dasharray="null" stroke-linejoin="null"
              stroke-linecap="null"
              d="m350.23662,42.82883l0.01,-0.00997l0.01,0.00997l-0.005,0l0,0.01001l-0.01,0l0,-0.01001l-0.005,0z"
              id="svg_13"/>
        <path id="svg_2"
              d="m124.5,91.5625c25,251 16,265 16,265c0,0 -23,-7 -23,-7c0,0 22,18 22,18c0,0 38,-10 38,-10c0,0 -27,-3 -27,-3c0,0 36,-60 30,-163c-6,-103 -9,-102 -9,-102c0,0 -47,2 -47,2z"
              stroke-linecap="null" stroke-linejoin="null" stroke-dasharray="null" stroke-width="null" stroke="#000000"
              fill="#bfbfbf"/>
        <path id="svg_15"
              d="m212,158c36,118 10,189 10,189c0,0 -27,-1 -27,-1c0,0 26,16 26,16c0,0 34,-12 34,-12c0,0 -23,-2 -23,-2c0,0 35,-70 32,-122c-3,-52 -10,-72 -10,-72c0,0 -42,4 -42,4z"
              stroke-linecap="null" stroke-linejoin="null" stroke-dasharray="null" stroke-width="null" stroke="#000000"
              fill="#bfbfbf"/>
        <path id="svg_18"
              d="m82.81245,344.06252c13.5,46.6875 7.3125,92.25 7.18755,91.87498c-0.12495,-0.37502 -11.68755,-0.74998 -11.8125,-1.125c-0.12495,-0.37502 18.12495,13.31252 18,12.9375c-0.12495,-0.37502 21.49995,-9.74998 21.375,-10.125c-0.12495,-0.37502 -17.87505,-0.18748 -18,-0.5625c-0.12495,-0.37502 13.06245,-47.43748 10.81245,-64.87498c-2.25,-17.4375 -7.875,-30.375 -7.99995,-30.75002c-0.12495,-0.37502 -19.56255,2.62502 -19.56255,2.62502z"
              stroke-linecap="null" stroke-linejoin="null" stroke-dasharray="null" stroke-width="null" stroke="#000000"
              fill="#bfbfbf"/>
        <text xml:space="preserve" text-anchor="middle" font-family="serif" font-size="24" id="svg_19" y="453.75" x="56.00002" stroke-linecap="null" stroke-linejoin="null" stroke-dasharray="null" stroke-width="0" stroke="#000000" fill="#000000">0</text>
  <text xml:space="preserve" text-anchor="middle" font-family="serif" font-size="24" id="svg_20" y="373.5" x="56.00002" stroke-linecap="null" stroke-linejoin="null" stroke-dasharray="null" stroke-width="0" stroke="#000000" fill="#000000">E</text>
  <text stroke="#000000" transform="matrix(0.8101884126663208,0,0,0.75,1.4384159352630377,73.3125) " xml:space="preserve" text-anchor="middle" font-family="serif" font-size="24" id="svg_21" y="330" x="50.25712" stroke-linecap="null" stroke-linejoin="null" stroke-dasharray="null" stroke-width="0" fill="#000000">E + dE</text>
  <text xml:space="preserve" text-anchor="middle" font-family="serif" font-size="24" id="svg_22" y="189.75" x="57.50002" stroke-linecap="null" stroke-linejoin="null" stroke-dasharray="null" stroke-width="0" stroke="#000000" fill="#000000">E'</text>
  <text stroke="#000000" transform="matrix(0.822791039943695,0,0,0.7234042286872864,22.971957289613783,43.78723695874214) " xml:space="preserve" text-anchor="middle" font-family="serif" font-size="24" id="svg_23" y="130.87501" x="24.87495" stroke-linecap="null" stroke-linejoin="null" stroke-dasharray="null" stroke-width="0" fill="#000000">E'+dE'</text>
  <text xml:space="preserve" text-anchor="middle" font-family="serif" font-size="24" id="svg_24" y="95.43751" x="51.31245" stroke-linecap="null" stroke-linejoin="null" stroke-dasharray="null" stroke-width="0" stroke="#000000" fill="#000000">E</text>
  <text stroke="#000000" transform="matrix(0.48370271921157837,0,0,0.5319148898124695,3.3559323251247406,36.773936469107866) " xml:space="preserve" text-anchor="middle" font-family="serif" font-size="24" id="svg_25" y="122.14501" x="119.48715" stroke-linecap="null" stroke-linejoin="null" stroke-dasharray="null" stroke-width="0" fill="#000000">0</text>
  <text stroke="#000000" transform="rotate(89.50634765625 438.36077880859375,189.05534362792972) matrix(2.3073220747182286,0,0,1,-579.8923708417734,-27.271965601327793) " xml:space="preserve" text-anchor="middle" font-family="serif" font-size="24" id="svg_26" y="224.47673" x="441.3288" stroke-linecap="null" stroke-linejoin="null" stroke-dasharray="null" stroke-width="0" fill="#000000">Прибыль</text>
  <text stroke="#000000" transform="rotate(91.33190155029297 434.39422607421875,386.2157592773438) matrix(1.4488484859466555,0,0,1,-188.7486123108445,14.965755579574534) " xml:space="preserve" text-anchor="middle" font-family="serif" font-size="24" id="svg_27" y="379.5" x="430.10307" stroke-linecap="null" stroke-linejoin="null" stroke-dasharray="null" stroke-width="0" fill="#000000">Убыль</text>
  <text stroke="#000000" transform="matrix(0.8518975377082825,0,0,0.8888888955116272,25.64718108717352,5.5815968895331025) " xml:space="preserve" text-anchor="middle" font-family="serif" font-size="24" id="svg_28" y="66.9375" x="211.70583" stroke-linecap="null" stroke-linejoin="null" stroke-dasharray="null" stroke-width="0" fill="#000000">Q</text>
  <text style="cursor: move;" xml:space="preserve" text-anchor="middle" font-family="serif" font-size="24" id="svg_29" y="209.25" x="341.00002" stroke-linecap="null" stroke-linejoin="null" stroke-dasharray="null" stroke-width="0" stroke="#000000" fill="#000000">Σ (E')φ(E')dE'</text>
  <text style="cursor: move;" stroke="#000000" transform="matrix(0.8884096949142054,0,0,0.7311827926011922,37.10343542450518,89.53755143029937) " xml:space="preserve" text-anchor="middle" font-family="serif" font-size="24" id="svg_30" y="357" x="315.50002" stroke-linecap="null" stroke-linejoin="null" stroke-dasharray="null" stroke-width="0" fill="#000000">Σ (E)φ(E)dE</text>
  <text stroke="#000000" transform="matrix(0.8267453908920289,0,0,0.7301587462425231,39.05408084951341,116.48660057689996) " xml:space="preserve" text-anchor="middle" font-family="serif" font-size="24" id="svg_31" y="429.75" x="157.25002" stroke-linecap="null" stroke-linejoin="null" stroke-dasharray="null" stroke-width="0" fill="#000000">Σ (E)φ(E)dE</text>
  <text stroke="#000000" transform="matrix(0.7269879921453466,0,0,0.7797142896964431,57.4261273154038,-1.5366520423593588) " xml:space="preserve" text-anchor="middle" font-family="serif" font-size="24" id="svg_32" y="71.24999" x="239.50388" stroke-linecap="null" stroke-linejoin="null" stroke-dasharray="null" stroke-width="0" fill="#000000">dE</text>
  <text stroke="#000000" transform="matrix(0.5999999642372131,0,0,0.7777777910232544,88.46875790972263,10.496527152135968) " xml:space="preserve" text-anchor="middle" font-family="serif" font-size="24" id="svg_33" y="84.42857" x="231.00002" stroke-linecap="null" stroke-linejoin="null" stroke-dasharray="null" stroke-width="0" fill="#000000">E</text>
  <text stroke="#000000" transform="matrix(0.6245110630989075,0,0,0.6388888955116272,103.54107435047626,17.869357311166823) " xml:space="preserve" text-anchor="middle" font-family="serif" font-size="24" id="svg_34" y="99.42391" x="213.29647" stroke-linecap="null" stroke-linejoin="null" stroke-dasharray="null" stroke-width="0" fill="#000000">0</text>
  <text stroke="#000000" transform="matrix(0.7368420958518982,0,0,0.75,67.37253530416638,9.55859375) " xml:space="preserve" text-anchor="middle" font-family="serif" font-size="24" id="svg_35" y="60" x="279.28574" stroke-linecap="null" stroke-linejoin="null" stroke-dasharray="null" stroke-width="0" fill="#000000">Σ</text>
  <text stroke="#000000" transform="matrix(0.9057283401489258,0,0,0.8333333134651184,22.69737510383129,8.247396816499531) " xml:space="preserve" text-anchor="middle" font-family="serif" font-size="24" id="svg_36" y="82.95" x="274.43678" stroke-linecap="null" stroke-linejoin="null" stroke-dasharray="null" stroke-width="0" fill="#000000">Σ +Σ</text>
        <line id="svg_37" y2="59.25" x2="242.75002" y1="59.25" x1="219.50002" stroke-linecap="null"
              stroke-linejoin="null" stroke-dasharray="null" stroke="#000000" fill="none"/>
        <line id="svg_39" y2="59.57808" x2="293.60941" y1="59.57808" x1="248.0469" stroke-linecap="null"
              stroke-linejoin="null" stroke-dasharray="null" stroke-width="null" stroke="#000000" fill="none"/>
        <text stroke="#000000" transform="matrix(0.5025125741958618,0,0,0.5238094925880432,138.28595789149404,13.49702469445765) " xml:space="preserve" text-anchor="middle" font-family="serif" font-size="24" id="svg_41" y="81.28547" x="285.99878" stroke-linecap="null" stroke-linejoin="null" stroke-dasharray="null" stroke-width="0" fill="#000000">s</text>
  <text stroke="#000000" transform="matrix(0.45728641748428345,0,0,0.49206346273422236,143.47142338659614,41.62450564093887) " xml:space="preserve" text-anchor="middle" font-family="serif" font-size="24" id="svg_42" y="78.56246" x="262.81253" stroke-linecap="null" stroke-linejoin="null" stroke-dasharray="null" stroke-width="0" fill="#000000">s</text>
  <text stroke="#000000" transform="matrix(0.4719686806201935,0,0,0.5079364776611328,158.32689092028886,26.402283370494843) " xml:space="preserve" text-anchor="middle" font-family="serif" font-size="24" id="svg_43" y="104.25729" x="291.54198" stroke-linecap="null" stroke-linejoin="null" stroke-dasharray="null" stroke-width="0" fill="#000000">o</text>
  <text stroke="#000000" transform="matrix(0.5767131594875962,0,0,0.5263671875,124.34150796588537,93.81797790527344) " xml:space="preserve" text-anchor="middle" font-family="serif" font-size="24" id="svg_44" y="225.49258" x="287.76851" stroke-linecap="null" stroke-linejoin="null" stroke-dasharray="null" stroke-width="0" fill="#000000">s</text>
  <text stroke="#000000" transform="matrix(0.7998352646827697,0,0,0.8095238208770752,70.79750261921436,52.56845005229117) " xml:space="preserve" text-anchor="middle" font-family="serif" font-size="24" id="svg_45" y="226.64059" x="335.79691" stroke-linecap="null" stroke-linejoin="null" stroke-dasharray="null" stroke-width="0" fill="#000000">E'</text>
        <line id="svg_46" y2="218.20309" x2="404.56253" y1="217.78121" x1="274.62503" stroke-linecap="null"
              stroke-linejoin="null" stroke-dasharray="null" stroke="#000000" fill="none"/>
        <text stroke="#000000" transform="matrix(0.5333333015441895,0,0,0.49206346273422236,107.83855168521404,172.4124606689438) " xml:space="preserve" text-anchor="middle" font-family="serif" font-size="24" id="svg_47" y="371.76559" x="321.45316" stroke-linecap="null" stroke-linejoin="null" stroke-dasharray="null" stroke-width="0" fill="#000000">α</text>
  <text stroke="#000000" transform="matrix(0.5025125741958618,0,0,0.4285714030265808,62.73005509749055,234.60715334489942) " xml:space="preserve" text-anchor="middle" font-family="serif" font-size="24" id="svg_48" y="463.59372" x="137.4819" stroke-linecap="null" stroke-linejoin="null" stroke-dasharray="null" stroke-width="0" fill="#000000">s</text>
    </g>
</svg>